<?xml version="1.0" standalone="no"?>
<!DOCTYPE svg PUBLIC "-//W3C//DTD SVG 20010904//EN"
 "http://www.w3.org/TR/2001/REC-SVG-20010904/DTD/svg10.dtd">
<svg version="1.0" xmlns="http://www.w3.org/2000/svg"
 width="255.000000pt" height="255.000000pt" viewBox="0 0 255.000000 255.000000"
 preserveAspectRatio="xMidYMid meet">
<metadata>
Created by potrace 1.14, written by Peter Selinger 2001-2017
</metadata>
<g transform="translate(0.000000,255.000000) scale(0.100000,-0.100000)"
fill="#000000" stroke="none">
<path d="M1157 2434 c-1 -1 -36 -4 -77 -8 -164 -14 -370 -90 -515 -192 -58
-41 -176 -150 -221 -205 -97 -118 -194 -317 -219 -447 -20 -104 -27 -200 -22
-298 l5 -113 -28 -23 c-46 -39 -70 -87 -70 -145 0 -45 4 -54 31 -77 17 -14 35
-26 40 -26 6 0 -2 -15 -16 -34 -14 -19 -29 -50 -32 -70 -5 -31 -3 -36 21 -42
14 -3 45 1 70 9 l45 16 16 -31 c8 -17 14 -32 13 -32 -79 -27 -123 -85 -107
-139 11 -39 34 -57 99 -80 28 -10 50 -23 51 -30 6 -146 32 -177 132 -164 39 5
45 3 86 -38 55 -54 163 -109 256 -131 76 -18 268 -23 374 -11 36 5 67 9 70 11
3 2 28 7 54 10 53 7 263 66 317 89 l35 15 20 -36 c77 -138 285 -90 285 65 0
32 -5 46 -25 61 l-25 20 95 53 c410 231 613 503 557 747 -6 23 -6 44 -2 47 4
3 17 25 29 51 24 49 23 112 -1 141 -9 11 -10 17 -2 20 35 12 47 30 40 64 -7
37 -25 62 -71 97 -24 19 -30 32 -32 67 -5 84 -63 170 -132 197 -14 5 -54 9
-89 9 -58 0 -64 2 -72 25 -34 89 -208 282 -329 363 -115 78 -274 147 -384 167
-17 2 -33 7 -37 9 -11 7 -226 24 -233 19z"/>
</g>
</svg>
